<?xml version="1.0" encoding="utf-8"?>
<!-- Generator: Adobe Illustrator 15.1.0, SVG Export Plug-In . SVG Version: 6.00 Build 0)  -->
<!DOCTYPE svg PUBLIC "-//W3C//DTD SVG 1.0//EN" "http://www.w3.org/TR/2001/REC-SVG-20010904/DTD/svg10.dtd">
<svg version="1.0" id="Layer_1" xmlns="http://www.w3.org/2000/svg" xmlns:xlink="http://www.w3.org/1999/xlink" x="0px" y="0px"
	 width="100px" height="100px" viewBox="0 0 100 100" enable-background="new 0 0 100 100" xml:space="preserve">
<path fill="none" stroke="#FFFFFF" stroke-width="2" stroke-miterlimit="10" d="M84.063,41.966
	c-0.874-3.721-2.338-7.214-4.294-10.372c-3.028,0.453-6.224-0.476-8.556-2.808s-3.26-5.526-2.808-8.555
	c-3.157-1.957-6.65-3.42-10.372-4.295C56.212,18.398,53.297,20,50,20s-6.212-1.602-8.033-4.063
	c-3.722,0.875-7.214,2.338-10.372,4.295c0.452,3.028-0.476,6.223-2.808,8.555c-2.332,2.332-5.526,3.26-8.555,2.807
	c-1.957,3.158-3.42,6.651-4.295,10.373C18.398,43.788,20,46.703,20,50s-1.602,6.212-4.063,8.033
	c0.875,3.722,2.337,7.215,4.294,10.372c3.028-0.452,6.223,0.476,8.555,2.808c2.332,2.332,3.26,5.527,2.808,8.556
	c3.158,1.956,6.65,3.42,10.372,4.294C43.788,81.603,46.703,80,50,80s6.212,1.603,8.033,4.063c3.722-0.874,7.215-2.338,10.372-4.294
	c-0.452-3.029,0.476-6.224,2.808-8.556c2.332-2.331,5.527-3.26,8.556-2.808c1.956-3.157,3.42-6.65,4.294-10.372
	C81.603,56.212,80,53.297,80,50S81.603,43.788,84.063,41.966z M50,60c-5.522,0-10-4.477-10-10c0-5.523,4.478-10,10-10
	s10,4.477,10,10C60,55.523,55.522,60,50,60z"/>
</svg>
